<svg viewBox="-3 0 512 512" xmlns="http://www.w3.org/2000/svg"><path d="m399.167969 429.882812-27.972657-23.601562c41.507813-49.191406 68.328126-118.507812 68.328126-176.597656 0-102.332032-83.25-185.585938-185.582032-185.585938-102.332031 0-185.585937 83.253906-185.585937 185.585938 0 58.089844 26.820312 127.40625 68.328125 176.597656l-27.96875 23.605469c-47.46875-56.253907-76.957032-132.96875-76.957032-200.203125 0-122.511719 99.671876-222.183594 222.183594-222.183594 122.511719 0 222.183594 99.671875 222.183594 222.183594 0 67.234375-29.488281 143.949218-76.957031 200.199218zm0 0" fill="#c6c5ca"/><path d="m27.5 348.269531s-33.167969-119.257812 10.792969-211.753906c5.421875-11.410156 19.703125-15.386719 30.324219-8.550781 7.007812 4.511718 14.890624 9.53125 21.558593 13.765625 8.402344 5.332031 11.871094 15.800781 8.414063 25.132812-10.460938 28.242188-25.933594 93.429688 7.382812 181.40625zm0 0" fill="#ff94de"/><path d="m105.972656 348.269531c-30.039062-79.328125-20.417968-140.125-10.5625-172.015625 0 0-59.707031 53.984375-36.214844 172.015625 21.964844-.164062 46.777344 0 46.777344 0zm0 0" fill="#ff71da"/><path d="m156.523438 463.757812-39.292969 20.039063-72.960938-143.058594 39.289063-20.039062c14.527344-7.410157 32.308594-1.636719 39.71875 12.886719l46.132812 90.457031c7.410156 14.527343 1.636719 32.308593-12.886718 39.714843zm0 0" fill="#898890"/><path d="m124.269531 498.742188c-25.976562 13.25-57.777343 2.929687-71.023437-23.046876l-39.988282-78.40625c-13.2499995-25.976562-2.929687-57.773437 23.046876-71.023437 0 0 28.683593-14.628906 43.3125 14.054687l58.707031 115.109376c14.628906 28.683593-14.054688 43.3125-14.054688 43.3125zm0 0" fill="#7de7ff"/><path d="m138.324219 455.429688-58.707031-115.109376c-14.628907-28.683593-43.316407-14.054687-43.316407-14.054687-4.398437 2.246094-8.347656 5.019531-11.808593 8.210937 3.640624 3.253907 7.0625 7.625 10.011718 13.40625l72.902344 142.941407c2.246094 4.402343 3.667969 8.542969 4.4375 12.410156 4.21875-.949219 8.390625-2.433594 12.421875-4.492187 0 0 28.6875-14.628907 14.058594-43.3125zm0 0" fill="#4ad6ed"/><path d="m480.382812 348.269531s33.164063-119.257812-10.792968-211.753906c-5.425782-11.410156-19.703125-15.386719-30.328125-8.550781-7.007813 4.511718-14.886719 9.53125-21.554688 13.765625-8.402343 5.332031-11.875 15.800781-8.417969 25.132812 10.464844 28.242188 25.933594 93.429688-7.382812 181.40625zm0 0" fill="#ffde55"/><path d="m401.90625 348.269531c30.042969-79.328125 20.417969-140.125 10.5625-172.015625 0 0 59.695312 53.984375 36.207031 172.015625-21.964843-.164062-46.769531 0-46.769531 0zm0 0" fill="#ffcd00"/><path d="m351.359375 463.757812 39.292969 20.039063 72.960937-143.058594-39.292969-20.039062c-14.527343-7.410157-32.308593-1.640625-39.714843 12.886719l-46.136719 90.457031c-7.40625 14.527343-1.636719 32.308593 12.890625 39.714843zm0 0" fill="#898890"/><path d="m383.613281 498.742188c25.976563 13.25 57.773438 2.929687 71.019531-23.046876l39.988282-78.40625c13.25-25.976562 2.933594-57.773437-23.046875-71.023437 0 0-28.683594-14.628906-43.3125 14.054687l-58.707031 115.109376c-14.628907 28.683593 14.058593 43.3125 14.058593 43.3125zm0 0" fill="#7de7ff"/><path d="m369.558594 455.429688 58.707031-115.109376c14.628906-28.683593 43.3125-14.054687 43.3125-14.054687 4.398437 2.246094 8.347656 5.019531 11.8125 8.210937-3.644531 3.253907-7.066406 7.621094-10.015625 13.40625l-72.902344 142.941407c-2.246094 4.40625-3.667968 8.542969-4.4375 12.414062-4.21875-.953125-8.390625-2.4375-12.421875-4.492187 0-.003906-28.683593-14.632813-14.054687-43.316406zm0 0" fill="#4ad6ed"/><path d="m491.730469 332.21875c7.613281-38.246094 19.183593-126.222656-15.367188-198.921875-3.496093-7.351563-10.308593-15.839844-22.152343-15.960937-13.210938-23.472657-30.285157-44.296876-50.804688-61.921876-3.144531-2.699218-7.878906-2.339843-10.578125.800782-2.699219 3.144531-2.339844 7.878906.804687 10.578125 17.785157 15.273437 32.800782 33.117187 44.734376 53.113281-1.082032.515625-12.621094 7.820312-18.308594 11.441406-34.796875-58.644531-97.722656-94.75-166.117188-94.75-68.335937 0-131.316406 36.125-166.113281 94.753906-5.6875-3.621093-17.230469-10.929687-18.316406-11.449218 38.753906-64.941406 108.5625-104.902344 184.429687-104.902344 41.535156 0 81.863282 11.933594 116.621094 34.515625 3.472656 2.253906 8.121094 1.269531 10.375-2.207031 2.257812-3.472656 1.269531-8.117188-2.203125-10.375-37.195313-24.160156-80.347656-36.933594-124.792969-36.933594-83.148437 0-159.496094 44.847656-200.285156 117.335938-9.707031-.945313-18.644531 8.609374-22.136719 15.960937-34.550781 72.699219-22.984375 160.671875-15.371093 198.921875-16.742188 18.027344-21.382813 45.320312-9.574219 68.476562l39.988281 78.410157c10.644531 20.867187 31.855469 32.894531 53.816406 32.894531 38.445313 0 48.4375-29.5 49.34375-36.355469l10.207032-5.203125c8.808593-4.492187 15.34375-12.148437 18.394531-21.554687 3.050781-9.410157 2.257812-19.441407-2.234375-28.25l-46.132813-90.460938c-9.273437-18.183593-31.617187-25.4375-49.804687-16.160156l-10.207032 5.203125c-20.484374-8.84375-39.421874 1.640625-40.566406 2.324219-17.652344-96.75 4.632813-159.105469 15.6875-181.808594 4.96875-10.207031 16.210938-7.578125 19.492188-5.464844 5.980468 3.851563 13.25 8.492188 21.59375 13.789063 5.4375 3.453125 7.660156 10.113281 5.402344 16.199218-7.632813 20.605469-19.070313 63.886719-9.902344 122.257813.644531 4.089844 4.480468 6.886719 8.574218 6.242187 4.09375-.640624 6.890626-4.480468 6.246094-8.570312-8.640625-55.003906 2.023438-95.484375 9.148438-114.71875 3.761718-10.152344 1.351562-21.4375-5.648438-29.183594 31.941406-54.835937 90.445313-88.6875 153.964844-88.6875 63.574219 0 122.027344 33.828125 153.972656 88.679688-7.003906 7.746094-9.417968 19.035156-5.65625 29.191406 8.824219 23.8125 20.816406 73.421875 3.773438 140.847656-11.648438 1.566406-22.375 8.621094-28.105469 19.863282l-46.132813 90.457031c-9.277343 18.1875-2.027343 40.527343 16.160157 49.804687l10.203125 5.203125c.910156 6.855469 9.628906 36.355469 49.347656 36.355469 21.960938 0 43.171875-12.027344 53.816406-32.898438l39.988282-78.40625c11.808593-23.15625 7.167968-50.449218-9.574219-68.476562zm-375.136719 4.773438 46.132812 90.457031c10.109376 20.605469-14.582031 32.164062-14.582031 32.164062-.773437-2.4375-64.628906-127.644531-66.148437-129.699219 0 0 22.117187-13.90625 34.597656 7.078126zm-76.914062-4.027344c16.351562-8.515625 27.675781-.183594 33.257812 10.761718l58.707031 115.109376c10.769531 21.117187-8.496093 32.023437-10.804687 33.234374-22.246094 11.332032-49.566406 2.460938-60.914063-19.785156l-39.988281-78.40625c-11.347656-22.25-2.378906-49.394531 19.742188-60.914062zm403.640624-198.691406c10.828126-6.835938 17.824219 1.953124 19.492188 5.460937 10.839844 22.808594 33.339844 85.0625 15.6875 181.8125-1.144531-.6875-17.761719-11.171875-40.570312-2.328125 0 0-14.503907-7.132812-16.710938-7.773438 17.101562-70.074218 4.421875-122.035156-4.894531-147.1875-2.253907-6.085937-.035157-12.746093 5.402343-16.199218 8.34375-5.292969 15.578126-9.988282 21.59375-13.785156zm44.621094 259.605468-39.988281 78.410156c-8 15.683594-23.9375 24.71875-40.433594 24.71875-6.90625 0-13.910156-1.585937-20.464843-4.929687-2.246094-1.175781-21.609376-12.082031-10.816407-33.242187l3.695313-7.25c1.882812-3.691407.417968-8.207032-3.273438-10.089844-3.691406-1.882813-8.207031-.414063-10.085937 3.277344 0 0-6.066407 12.402343-6.839844 14.839843 0 0-25.078125-7.210937-14.582031-32.164062l46.132812-90.453125c11.691406-21.652344 34.597656-7.082032 34.597656-7.082032-1.519531 2.058594-45.761718 88.292969-45.761718 88.292969-1.882813 3.691407-.417969 8.207031 3.273437 10.089844 3.6875 1.882813 8.207031.414063 10.085938-3.277344l41.460937-81.289062c10.792969-21.160157 30.992188-11.890625 33.226563-10.78125 22.25 11.347656 31.121093 38.679687 19.773437 60.929687zm0 0"/></svg>