<svg id="Layer_1" enable-background="new 0 0 512.002 512.002" height="512" viewBox="0 0 512.002 512.002" width="512" xmlns="http://www.w3.org/2000/svg"><g><g clip-rule="evenodd" fill-rule="evenodd"><path d="m144.147 229.319c0-15.025-12.292-27.317-27.317-27.317-15.024 0-27.317 12.292-27.317 27.317v2.274c-4.007-1.85-8.468-2.883-13.171-2.883-17.377 0-31.463 14.087-31.463 31.463 0 3.642.621 7.139 1.76 10.393-14.003 6.515-23.711 20.707-23.711 37.168 0 12.198 5.332 23.149 13.79 30.655-15.819 7.726-26.716 23.969-26.716 42.759 0 19.962 12.299 37.049 29.731 44.103-.462 2.465-.707 5.006-.707 7.605 0 20.375 14.871 37.272 34.35 40.44 3.264 16.37 17.71 28.706 35.039 28.706 19.734 0 35.732-15.997 35.732-35.731v-183.81z" fill="#ff9c9b"/><path d="m144.147 282.461v183.809c0 19.734 15.998 35.731 35.732 35.731 17.329 0 31.775-12.337 35.039-28.706 19.479-3.167 34.351-20.065 34.351-40.44 0-2.599-.245-5.14-.708-7.605 17.432-7.054 29.732-24.141 29.732-44.103 0-18.79-10.898-35.033-26.716-42.759 8.458-7.507 13.79-18.457 13.79-30.655 0-16.461-9.708-30.653-23.711-37.168 1.138-3.254 1.759-6.751 1.759-10.393 0-17.377-14.087-31.463-31.463-31.463-4.703 0-9.164 1.034-13.171 2.883v-2.274c0-15.025-12.293-27.317-27.317-27.317s-27.317 12.292-27.317 27.317z" fill="#ff9c9b"/><g fill="#5cd0b3"><path d="m302.003 185.005c0 13.807 44.771 25 100 25 55.228 0 100-11.193 100-25v-50.002c0 13.807-44.771 25-100 25s-100-11.193-100-25z"/><path d="m302.003 135.004c0 13.807 44.771 25 100 25 55.228 0 100-11.193 100-25v-50.002c0 13.807-44.771 25-100 25s-100-11.193-100-25z"/><path d="m302.003 85.002c0 13.807 44.771 25 100 25 55.228 0 100-11.193 100-25v-50.002c0 13.807-44.771 25-100 25s-100-11.193-100-25z"/></g><ellipse cx="402.002" cy="35" fill="#9de3d1" rx="100" ry="25"/></g><g><path d="m96.027 379.521c2.885-6.942 3.543-14.809 1.497-22.446-1.586-5.916-4.713-11.331-9.043-15.661-3.906-3.905-10.236-3.905-14.143 0-3.905 3.905-3.905 10.237 0 14.143 1.852 1.852 3.189 4.167 3.867 6.696 1.746 6.518-1.116 13.427-6.96 16.802-4.346 2.509-6.159 7.851-4.239 12.487 1.921 4.636 6.983 7.131 11.827 5.832 7.955-2.134 16.162 2.606 18.294 10.563.338 1.258.509 2.558.509 3.864 0 5.523 4.478 10 10 10s10-4.477 10-10c0-3.055-.4-6.097-1.19-9.042-2.921-10.902-10.719-19.22-20.419-23.238z"/><path d="m217.048 379.054c-5.844-3.375-8.706-10.284-6.96-16.802.678-2.529 2.015-4.845 3.866-6.696 3.905-3.905 3.905-10.237 0-14.143-3.906-3.905-10.236-3.905-14.143 0-4.331 4.331-7.457 9.747-9.042 15.663-2.046 7.637-1.388 15.503 1.497 22.445-9.7 4.018-17.499 12.337-20.421 23.24-.789 2.949-1.189 5.991-1.189 9.04 0 5.523 4.478 10 10 10s10-4.477 10-10c0-1.304.172-2.605.509-3.866 2.132-7.956 10.339-12.693 18.295-10.562 4.845 1.298 9.906-1.195 11.827-5.833 1.92-4.635.107-9.977-4.239-12.486z"/><path d="m512.002 35c0-34.018-98.741-35-110-35s-110 .982-110 35v150.005c0 12.222 12.059 21.178 36.864 27.379 17.256 4.314 39.381 6.925 63.136 7.499v49.506l-22.285 22.285c-3.905 3.905-3.905 10.237 0 14.142 3.905 3.906 10.235 3.906 14.143 0l8.143-8.143v63.474c0 5.514-4.486 10-10 10h-94.568c-2.403-13.884-9.761-26.262-20.74-34.984 5.596-8.332 8.671-18.218 8.671-28.43 0-16.965-8.54-32.747-22.303-42.144.233-1.789.352-3.597.352-5.417 0-22.863-18.601-41.463-41.463-41.463-1.559 0-3.104.085-4.633.254-4.499-15.554-18.87-26.961-35.855-26.961-10.775 0-20.498 4.59-27.316 11.919-6.818-7.329-16.542-11.919-27.317-11.919-16.984 0-31.355 11.407-35.854 26.961-1.528-.169-3.074-.254-4.633-.254-22.863 0-41.464 18.601-41.464 41.463 0 1.82.118 3.628.352 5.417-13.763 9.397-22.303 25.179-22.303 42.144 0 10.212 3.074 20.098 8.672 28.43-13.559 10.771-21.601 27.114-21.601 44.985 0 20.983 11.185 39.884 29.053 50.024-.02.562-.028 1.123-.028 1.684 0 22.9 14.934 42.504 36.332 48.846 6.416 17.895 23.582 30.3 43.059 30.3 14.442 0 27.345-6.731 35.731-17.22 8.387 10.488 21.289 17.22 35.731 17.22 19.476 0 36.642-12.405 43.059-30.3 21.398-6.342 36.332-25.947 36.332-48.846 0-.561-.01-1.122-.028-1.684 14.974-8.499 25.25-23.152 28.187-40.024h94.574c16.542 0 30-13.458 30-30v-63.474l8.143 8.143c1.953 1.953 4.512 2.929 7.071 2.929s5.118-.977 7.071-2.929c3.905-3.905 3.905-10.237 0-14.142l-22.285-22.285v-49.506c23.754-.574 45.879-3.185 63.136-7.499 24.806-6.201 36.864-15.157 36.864-27.379zm-403.587 457.002c-7.698 0-14.749-3.444-19.518-8.978 1.443-.256 2.879-.551 4.296-.93 5.335-1.429 8.501-6.913 7.071-12.247-1.43-5.335-6.913-8.501-12.247-7.071-4.229 1.133-8.706 1.355-13.024.648-.016-.003-.032-.003-.048-.005-13.25-2.169-23.287-12.422-25.472-25.281 2.667.377 5.365.571 8.087.571 5.027 0 10.04-.66 14.898-1.961 5.334-1.429 8.501-6.913 7.071-12.247-1.428-5.333-6.902-8.5-12.247-7.072-3.17.85-6.441 1.28-9.723 1.28-4.847 0-9.583-.921-14.077-2.738-.033-.013-.067-.022-.1-.035-14.205-5.795-23.382-19.437-23.382-34.788 0-14.444 8.055-27.359 21.026-33.731.025-.012.051-.02.077-.032 2.154-1.05 4.421-1.897 6.737-2.518 5.335-1.43 8.5-6.914 7.07-12.248s-6.908-8.5-12.248-7.07c-1.121.301-2.231.648-3.335 1.017-4.11-5.368-6.401-11.977-6.401-18.832 0-8.806 3.799-17.077 10.117-22.866 3.355 4.523 7.616 8.356 12.565 11.213 1.575.91 3.294 1.342 4.99 1.342 3.456 0 6.817-1.794 8.67-5.001 2.762-4.783 1.123-10.899-3.66-13.661-4.447-2.568-7.831-6.652-9.526-11.499-.008-.024-.02-.046-.028-.07-.779-2.252-1.177-4.612-1.177-7.019 0-11.835 9.629-21.463 21.464-21.463 3.115 0 6.114.652 8.918 1.936.022.01.042.024.064.034 4.053 1.868 7.374 4.897 9.605 8.762 1.853 3.208 5.213 5.001 8.67 5.001 1.696 0 3.416-.432 4.99-1.341 4.783-2.761 6.422-8.877 3.66-13.66-3.118-5.402-7.353-9.943-12.414-13.417 1.544-7.977 8.573-14.022 16.993-14.022 9.549 0 17.317 7.769 17.317 17.317v48.334c-2.287 1.366-4.9 2.112-7.633 2.112-3.99 0-7.741-1.553-10.561-4.374-3.905-3.906-10.237-3.906-14.143-.001s-3.906 10.236-.002 14.142c6.598 6.599 15.372 10.233 24.705 10.233 2.6 0 5.154-.292 7.633-.842v167.348c.004 14.187-11.539 25.73-25.728 25.73zm136.486-76.062c-.03.012-.061.019-.091.031-4.494 1.816-9.23 2.738-14.078 2.738-3.281 0-6.552-.431-9.722-1.28-5.336-1.429-10.817 1.737-12.247 7.071s1.736 10.818 7.071 12.247c4.857 1.302 9.869 1.961 14.897 1.961 2.722 0 5.421-.194 8.088-.571-2.184 12.858-12.222 23.112-25.472 25.281-.016.002-.032.003-.048.005-4.316.707-8.796.485-13.024-.648-5.336-1.43-10.817 1.737-12.247 7.071s1.736 10.818 7.071 12.247c1.417.38 2.853.674 4.295.93-4.769 5.533-11.82 8.978-19.517 8.978-14.188 0-25.731-11.543-25.731-25.731v-167.347c2.479.55 5.032.842 7.633.842 9.333 0 18.107-3.634 24.705-10.233 3.904-3.906 3.903-10.237-.002-14.142s-10.237-3.904-14.143.001c-2.819 2.821-6.57 4.374-10.561 4.374-2.733 0-5.346-.745-7.633-2.112v-48.334c0-9.548 7.769-17.317 17.316-17.317 8.422 0 15.45 6.045 16.994 14.022-5.061 3.474-9.296 8.015-12.414 13.417-2.762 4.783-1.123 10.899 3.66 13.66 1.575.91 3.294 1.341 4.99 1.341 3.456 0 6.818-1.793 8.67-5.001 2.231-3.864 5.553-6.894 9.605-8.762.022-.01.042-.023.064-.034 2.804-1.284 5.803-1.936 8.918-1.936 11.835 0 21.463 9.628 21.463 21.463 0 2.407-.398 4.769-1.177 7.022-.008.023-.019.044-.027.067-1.695 4.847-5.079 8.931-9.527 11.499-4.783 2.761-6.422 8.877-3.66 13.66 1.852 3.208 5.213 5.002 8.67 5.002 1.696 0 3.415-.433 4.99-1.341 4.949-2.857 9.211-6.691 12.566-11.214 6.318 5.789 10.116 14.06 10.116 22.866 0 6.855-2.29 13.465-6.4 18.832-1.104-.369-2.214-.716-3.336-1.017-5.338-1.429-10.817 1.737-12.247 7.071s1.736 10.818 7.071 12.247c2.316.621 4.583 1.468 6.737 2.518.025.012.051.02.076.032 12.971 6.372 21.026 19.287 21.026 33.731.004 15.355-9.176 28.999-23.388 34.793zm247.101-331.954c-2.389 2.609-14.471 9.416-46.255 13.427-5.479.691-9.36 5.694-8.669 11.173.638 5.055 4.943 8.749 9.908 8.749.417 0 .84-.026 1.265-.08 18.662-2.355 33.254-5.795 43.751-10.287v27.016c-1.724 1.85-8.867 6.319-26.906 10.2-17.446 3.753-39.854 5.82-63.094 5.82s-45.647-2.067-63.094-5.82c-18.043-3.882-25.184-8.352-26.906-10.201v-27.015c10.495 4.491 25.086 7.931 43.745 10.286.425.054.847.08 1.265.08 4.965 0 9.271-3.694 9.908-8.749.692-5.479-3.189-10.482-8.669-11.173-31.783-4.011-43.862-10.819-46.249-13.427v-27.107c29.474 12.619 81.972 13.122 90 13.122s60.527-.503 90-13.123zm-153.046-58.151c17.472-3.763 39.863-5.835 63.046-5.835s45.574 2.072 63.046 5.835c15.238 3.282 22.724 6.978 25.733 9.165-3.01 2.187-10.495 5.883-25.733 9.165-17.472 3.763-39.862 5.835-63.046 5.835s-45.574-2.072-63.046-5.835c-15.238-3.282-22.724-6.979-25.733-9.165 3.01-2.187 10.495-5.883 25.733-9.165zm126.163 168.346c-17.446 3.756-39.861 5.825-63.117 5.825s-45.671-2.068-63.117-5.825c-18.002-3.875-25.148-8.338-26.883-10.19v-27.058c4.917 2.082 10.751 3.95 17.523 5.614 19.575 4.809 45.314 7.458 72.477 7.458s52.901-2.648 72.477-7.458c6.772-1.664 12.606-3.532 17.523-5.614v27.058c-1.734 1.852-8.881 6.314-26.883 10.19z"/><path d="m94.646 119.82c13.221-13.221 30.8-20.502 49.497-20.502s36.276 7.281 49.497 20.502c1.953 1.953 4.512 2.929 7.071 2.929s5.118-.976 7.071-2.929c3.905-3.905 3.905-10.237 0-14.143-16.999-16.999-39.6-26.36-63.64-26.36s-46.641 9.361-63.64 26.36c-3.905 3.905-3.905 10.237 0 14.143 3.907 3.905 10.238 3.905 14.144 0z"/><path d="m172.427 151.033c2.559 0 5.118-.977 7.071-2.929 3.905-3.905 3.905-10.237 0-14.142-9.443-9.444-21.999-14.645-35.355-14.645s-25.912 5.201-35.355 14.645c-3.905 3.905-3.905 10.237 0 14.142 3.906 3.905 10.238 3.905 14.143 0 5.665-5.666 13.199-8.786 21.213-8.786s15.548 3.12 21.213 8.786c1.952 1.953 4.51 2.929 7.07 2.929z"/><path d="m134.139 169.317c0 5.523 4.478 10 10 10h.008c5.522 0 9.996-4.477 9.996-10s-4.481-10-10.004-10-10 4.477-10 10z"/><path d="m401.995 100.002c-5.522 0-9.996 4.477-9.996 10s4.48 10 10.003 10 10-4.477 10-10-4.478-10-10-10z"/></g></g></svg>